
<svg xmlns="http://www.w3.org/2000/svg" xmlns:xlink="http://www.w3.org/1999/xlink" version="1.1" x="0px" y="0px" width="150" height="100" viewBox="0 0 100 125" enable-background="new 0 0 150 100" xml:space="preserve"><path fill="#98fffb" d="M74.118,25.404c-4.904,2.332-8.31,7.32-8.31,13.101c0,8.002,6.511,14.513,14.513,14.513s14.513-6.511,14.513-14.513  S88.322,23.992,80.32,23.992c-0.894,0-1.766,0.093-2.616,0.249c0.24-0.472,0.43-0.97,0.566-1.487  c0.421-1.604,0.187-3.268-0.661-4.688c-0.861-1.442-2.248-2.458-3.904-2.858c-2.802-0.681-5.674,1.015-6.399,3.775  c-0.295,1.121-0.13,2.284,0.462,3.276c0.602,1.007,1.569,1.715,2.724,1.994c1.359,0.334,2.583-0.519,3.088-1.527  c0.498-0.995,0.3-2.069-0.506-2.734c-0.428-0.354-1.058-0.292-1.407,0.134c-0.353,0.426-0.292,1.056,0.134,1.407  c0.032,0.027,0.099,0.082-0.01,0.299c-0.145,0.291-0.498,0.553-0.828,0.479c-0.629-0.152-1.153-0.534-1.477-1.076  c-0.315-0.527-0.402-1.146-0.246-1.743c0.451-1.714,2.241-2.763,3.995-2.34c1.13,0.273,2.074,0.963,2.658,1.94  c0.569,0.955,0.728,2.075,0.444,3.154C76.001,23.522,75.206,24.638,74.118,25.404z M92.833,38.505  c0,6.899-5.613,12.513-12.513,12.513s-12.513-5.613-12.513-12.513c0-4.628,2.532-8.668,6.278-10.833  c1.149-0.641,4.392-1.68,6.235-1.68C87.22,25.992,92.833,31.605,92.833,38.505z M85.209,76.65L73.892,55.772  c-2.796-5.552-8.63-9.032-14.843-8.871l-9.815,0.239c-0.453-0.27-0.904-0.548-1.362-0.841c-2.453-1.565-5.233-3.34-9.812-3.447  c-4.543-0.102-8.883,1.599-12.165,4.804c-3.358,3.279-5.208,7.688-5.208,12.411c0,4.03,1.404,7.875,3.942,10.945l-12.596,0.146  C5.914,71.295,5,75.037,5,77.234V78v3.824c0,3.184,2.083,5.774,4.644,5.774c2.369,0,4.253-1.972,4.577-4.61l13.995-0.153  c2.909-0.023,7.597-0.873,8.999-3.965l0.856-1.717c2.998-0.115,5.097-1.019,7.3-1.983c1.229-0.539,2.504-1.092,4.016-1.543  c0.599,0.063,2.352,0.221,4.72,0.221c3.734,0,8.955-0.417,13.454-2.226l5.033,9.589c0.404,0.673,0.605,1.311,0.801,1.927  c0.407,1.29,0.829,2.624,2.918,3.375c1.282,0.421,3.926,0.771,6.579,0.771c2.634,0,5.278-0.345,6.608-1.309  C90.4,85.322,90.59,84.541,90.59,84C90.59,80.45,88.397,77.608,85.209,76.65z M35.409,77.981c-1.07,2.359-4.2,3.019-6.577,3.019  c-0.01,0-0.02,0-0.03,0c-0.005,0-0.008,0.003-0.013,0.003l-15.091,0.283c-0.129-0.2-0.817-0.604-1.26-0.208  c-0.445,0.398-0.109,0.984-0.176,1.466c-0.13,1.761-1.205,3.055-2.618,3.055C8.235,85.599,7,83.835,7,81.824V78v-0.766  c0-1.687,0.526-3.949,5.064-4.051l13.451-0.152c0.553-0.005,0.794-0.413,1.018-0.918c0.078-0.176,0.298-0.708,0.307-0.729  l5.285-11.67c0.621-1.367,1.739-2.407,3.149-2.924c1.409-0.516,2.934-0.451,4.29,0.193c2.72,1.287,3.922,4.561,2.696,7.273  L35.409,77.981z M44.568,73.338c-1.794,0.786-3.401,1.478-5.458,1.73l4.956-9.938c1.689-3.733,0.054-8.196-3.646-9.946  c-1.845-0.875-3.917-0.968-5.834-0.267c-1.917,0.703-3.438,2.113-4.282,3.974L25.67,69.119c-1.93-2.601-2.983-5.759-2.983-9.052  c0-4.181,1.636-8.08,4.605-10.98c2.893-2.826,6.717-4.34,10.721-4.234c4.021,0.094,6.441,1.639,8.782,3.133  c0.495,0.316,0.982,0.618,1.472,0.908c-2.33,5.297-2.887,16.013-0.297,23.086C46.716,72.403,45.624,72.876,44.568,73.338z   M88.327,84.355c-1.891,1.368-9.003,1.039-11.363,0.266c-1.131-0.406-1.297-0.933-1.661-2.086c-0.209-0.659-0.468-1.48-0.966-2.305  L63.866,60.276c-0.256-0.488-0.86-0.677-1.351-0.421c-0.489,0.257-0.678,0.861-0.421,1.351l4.541,8.651  c-6.335,2.468-14.418,2.004-16.64,1.816c-2.608-6.632-2.061-17.431,0.216-22.248c0.068-0.145,0.089-0.296,0.086-0.446l8.806-0.15  c5.432-0.179,10.554,2.993,13.018,7.882L82.747,76.31c-0.529,0.027-0.952,0.455-0.952,0.99c0,0.553,0.447,1,1,1  c3.304,0,5.795,2.45,5.795,5.7C88.59,84.045,88.59,84.165,88.327,84.355z"/></svg>